<?xml version="1.0" standalone="yes"?>

<svg version="1.1" viewBox="0.0 0.0 336.0 321.0" fill="none" stroke="none" stroke-linecap="square" stroke-miterlimit="10" xmlns="http://www.w3.org/2000/svg" xmlns:xlink="http://www.w3.org/1999/xlink"><clipPath id="p.0"><path d="m0 0l336.0 0l0 321.0l-336.0 0l0 -321.0z" clip-rule="nonzero"></path></clipPath><g clip-path="url(#p.0)"><path fill="#000000" fill-opacity="0.0" d="m0 0l336.12335 0l0 321.30972l-336.12335 0z" fill-rule="nonzero"></path><path fill="#cfe2f3" d="m10.4229145 64.552666l5.6854744 29.387466l46.887314 -9.071106l42.49318 219.64154l18.832588 -3.6434631l-42.49318 -219.64154l47.081467 -9.108665l-5.685478 -29.387463z" fill-rule="evenodd"></path><path fill="#cfe2f3" d="m208.62466 51.055466c9.383926 -1.8154716 18.647263 0.7197571 27.789963 7.6056976c9.156982 6.8440247 17.14473 17.419212 23.963242 31.725594c6.8401184 14.3022 12.210083 31.532242 16.109955 51.690117c6.857605 35.44615 6.4620667 63.072952 -1.1866455 82.8804c-9.091705 -9.167175 -19.588623 -15.360352 -31.490784 -18.579483l0.07128906 24.83432c7.084137 1.5665894 14.217133 5.1209717 21.399017 10.663162c-5.0994873 5.5684967 -11.014496 9.003815 -17.74504 10.305939c-14.237686 2.7545166 -27.6167 -3.6447144 -40.137054 -19.197693c-12.498764 -15.557144 -21.881195 -39.52997 -28.147263 -71.91846c-6.463257 -33.407715 -6.692581 -59.40589 -0.68795776 -77.99456c5.997299 -18.626404 16.01773 -29.29808 30.06128 -32.015038zm-5.585373 -28.34946c-13.008072 2.5166206 -23.756958 10.059227 -32.24666 22.62782c-8.468109 12.564419 -13.5997925 29.476463 -15.395004 50.736145c-1.7952118 21.259674 -0.31565857 44.176765 4.438675 68.75124c4.776245 24.687729 11.896439 46.33731 21.360596 64.948746c9.485733 18.607254 20.522308 32.33255 33.109726 41.175903c12.587418 8.843323 25.32045 12.019226 38.19908 9.527618c12.749207 -2.4665222 23.401367 -9.872925 31.956451 -22.219208c12.855377 11.963593 25.020111 20.183807 36.4942 24.660614l1.0966492 -24.00293c-8.319824 -3.4422455 -17.866882 -9.584198 -28.641235 -18.425858c4.839264 -13.507156 7.457489 -28.777664 7.854645 -45.811523c0.38989258 -17.07164 -1.3979797 -35.856262 -5.363556 -56.35385c-4.776245 -24.687737 -11.835205 -46.309998 -21.17691 -64.8668c-9.327423 -18.59872 -20.320847 -32.332367 -32.980286 -41.20094c-12.666733 -8.906321 -25.568863 -12.088646 -38.706375 -9.546982z" fill-rule="evenodd"></path><path stroke="#000000" stroke-width="2.0" stroke-linejoin="round" stroke-linecap="butt" d="m10.4229145 64.552666l5.6854744 29.387466l46.887314 -9.071106l42.49318 219.64154l18.832588 -3.6434631l-42.49318 -219.64154l47.081467 -9.108665l-5.685478 -29.387463z" fill-rule="evenodd"></path><path stroke="#000000" stroke-width="2.0" stroke-linejoin="round" stroke-linecap="butt" d="m208.62466 51.055466c9.383926 -1.8154716 18.647263 0.7197571 27.789963 7.6056976c9.156982 6.8440247 17.14473 17.419212 23.963242 31.725594c6.8401184 14.3022 12.210083 31.532242 16.109955 51.690117c6.857605 35.44615 6.4620667 63.072952 -1.1866455 82.8804c-9.091705 -9.167175 -19.588623 -15.360352 -31.490784 -18.579483l0.07128906 24.83432c7.084137 1.5665894 14.217133 5.1209717 21.399017 10.663162c-5.0994873 5.5684967 -11.014496 9.003815 -17.74504 10.305939c-14.237686 2.7545166 -27.6167 -3.6447144 -40.137054 -19.197693c-12.498764 -15.557144 -21.881195 -39.52997 -28.147263 -71.91846c-6.463257 -33.407715 -6.692581 -59.40589 -0.68795776 -77.99456c5.997299 -18.626404 16.01773 -29.29808 30.06128 -32.015038zm-5.585373 -28.34946c-13.008072 2.5166206 -23.756958 10.059227 -32.24666 22.62782c-8.468109 12.564419 -13.5997925 29.476463 -15.395004 50.736145c-1.7952118 21.259674 -0.31565857 44.176765 4.438675 68.75124c4.776245 24.687729 11.896439 46.33731 21.360596 64.948746c9.485733 18.607254 20.522308 32.33255 33.109726 41.175903c12.587418 8.843323 25.32045 12.019226 38.19908 9.527618c12.749207 -2.4665222 23.401367 -9.872925 31.956451 -22.219208c12.855377 11.963593 25.020111 20.183807 36.4942 24.660614l1.0966492 -24.00293c-8.319824 -3.4422455 -17.866882 -9.584198 -28.641235 -18.425858c4.839264 -13.507156 7.457489 -28.777664 7.854645 -45.811523c0.38989258 -17.07164 -1.3979797 -35.856262 -5.363556 -56.35385c-4.776245 -24.687737 -11.835205 -46.309998 -21.17691 -64.8668c-9.327423 -18.59872 -20.320847 -32.332367 -32.980286 -41.20094c-12.666733 -8.906321 -25.568863 -12.088646 -38.706375 -9.546982z" fill-rule="evenodd"></path></g></svg>

